<svg width="176" height="200" viewBox="0 0 176 200" fill="none" xmlns="http://www.w3.org/2000/svg">
<path d="M172.642 47.5748L91.411 0.908251C90.3757 0.313429 89.1986 0 88 0C86.8014 0 85.6243 0.313429 84.589 0.908251L3.35822 47.5748C2.33628 48.1619 1.48845 49.0026 0.899224 50.013C0.309997 51.0234 -4.49549e-05 52.1683 4.88908e-09 53.3335V146.667C-4.49549e-05 147.832 0.309997 148.977 0.899224 149.987C1.48845 150.997 2.33628 151.838 3.35822 152.425L84.589 199.092C85.6243 199.687 86.8014 200 88 200C89.1986 200 90.3757 199.687 91.411 199.092L172.642 152.425C173.664 151.838 174.512 150.997 175.101 149.987C175.69 148.977 176 147.832 176 146.667V53.3335C176 52.1683 175.69 51.0234 175.101 50.013C174.512 49.0026 173.664 48.1619 172.642 47.5748ZM88 14.3849L155.798 53.3335L88 92.282L20.2021 53.3335L88 14.3849ZM13.5385 64.9414L81.2308 103.828V181.725L13.5385 142.839V64.9414ZM94.7692 181.725V103.828L162.462 64.9414V142.839L94.7692 181.725Z" fill="#2D3142"/>
</svg>
